<?xml version="1.0" encoding="UTF-8" standalone="no"?><svg height="35" viewBox="0 0 62.970833 9.260417" width="238" xmlns="http://www.w3.org/2000/svg"><g transform="scale(.26458333)"><path d="m108.1 13.49 3.03 11.19h2.86l3.09-11.2v11.2h2.85v-14.73h-4.33l-2.99 11.37h-.04l-3.01-11.37h-4.28v14.73h2.82z"/><path d="m139.38 21.55h5.31l1 3.13h3.11l-5.2-14.68h-3.09l-5.13 14.73h3zm2.68-8.8 1.94 6.51h-3.89z"/><path d="m176.24 9.95h-2.87v10.28h-.04l-5.93-10.28h-3.03v14.73h2.86v-10.18h.05l6.07 10.18h2.89z"/><path d="m42.17 9.95h-2.98v5.77h-5.79v-5.77h-2.99v14.73h2.99v-6.49h5.79v6.49h2.98z"/><path d="m89.5 9.95h-11.85v2.51h4.43v12.22h2.99v-12.22h4.43z"/><path d="m58.799999 9.95h2.99v14.73h-2.99z"/><path d="m207 0h-207v35h238v-35zm-3 32h-201v-29h201zm22.64-7.35h-10.37a6 6 0 0 1 .36-1.87 6.79 6.79 0 0 1 .8-1.54 7.44 7.44 0 0 1 1.1-1.27c.4-.38.81-.73 1.22-1s.9-.69 1.36-1a13 13 0 0 0 1.22-1 4.82 4.82 0 0 0 .88-1.06 2.41 2.41 0 0 0 .33-1.25 2.48 2.48 0 0 0 -.54-1.66 1.82 1.82 0 0 0 -1.49-.62 2.09 2.09 0 0 0 -1.71.75 3.63 3.63 0 0 0 -.65 2.17h-2.7a5.7 5.7 0 0 1 1.28-3.91 4.84 4.84 0 0 1 3.84-1.46 5.5 5.5 0 0 1 2.1.37 4.51 4.51 0 0 1 1.54 1 4.32 4.32 0 0 1 .95 1.48 5 5 0 0 1 .32 1.77 4.76 4.76 0 0 1 -.31 1.79 4.81 4.81 0 0 1 -.84 1.38 7 7 0 0 1 -1.16 1.08c-.44.33-.87.63-1.31.93l-.86.58a9.19 9.19 0 0 0 -.84.63 6.46 6.46 0 0 0 -.7.68 4.15 4.15 0 0 0 -.51.68h6.66z"/></g></svg>