<?xml version="1.0" encoding="UTF-8"?>
<svg width="104px" height="34px" viewBox="0 0 104 34" version="1.1" xmlns="http://www.w3.org/2000/svg" xmlns:xlink="http://www.w3.org/1999/xlink">
    <title>ICON/top_Bstation Logo </title>
    <g id="ICON/top_Bstation-Logo-" stroke="none" stroke-width="1" fill="none" fill-rule="evenodd">
        <path d="M82.3847995,13.4645173 C84.0582835,14.8030901 84.9928195,17.7840672 84.9478074,21.6417076 C84.9172636,24.2341877 83.5042065,26.7746896 81.3484505,28.1143342 C80.4010539,28.7016344 79.386675,29.0001072 78.3942663,29.0001072 C77.6730017,29.0001072 76.9645977,28.8431008 76.303885,28.5253371 C72.6520139,26.7677235 72.0084487,22.442815 73.0833795,18.3483254 L73.0833795,18.3477896 C74.3774761,15.0640529 76.1013307,13.115138 78.2056444,12.5546307 C79.6588908,12.1688131 81.1796553,12.4994373 82.3847995,13.4645173 Z M4.26203447,5.21343217 C4.26203447,5.21343217 5.9665982,4.91495936 8.49852639,5.0237385 C12.3358042,5.18878271 16.9297133,7.15430919 18.3642047,9.30577833 C18.8754131,10.0731267 18.9895508,10.9905153 18.6851835,11.8902206 C18.0732339,13.693918 15.4094847,15.1723497 12.8743413,16.207627 C15.9298026,16.995338 18.9000625,18.0140038 20.0317942,19.1457355 C20.77878,19.8932571 21.0204519,21.2334375 20.676967,22.2510315 C19.6309726,25.3568634 12.8030723,27.8887916 7.88657676,28.622381 C7.88336161,28.6229169 7.88121818,28.6250603 7.87853889,28.6250603 L7.87853889,28.6250603 L7.6802715,28.6545325 L7.6802715,28.6545325 L7.57845852,28.6706082 L6.83790301,28.7799232 C6.82343485,28.7820666 6.80735911,28.7836742 6.7923551,28.7836742 L6.7923551,28.7836742 L4.41153881,28.8619094 C4.18647852,28.8699473 4,28.6893632 4,28.4637671 L4,28.4637671 L4,5.58799678 C4,5.42080915 4.10449227,5.27130481 4.26203447,5.21343217 Z M51.3866036,11.8965437 C52.6940966,11.8638564 54.1157274,12.3927481 54.1157274,12.3927481 C54.3027418,12.4265071 54.4393855,12.5872644 54.4431366,12.7769581 L54.4431366,12.7769581 L54.7282932,27.3147807 C54.7319639,27.502331 54.6038939,27.6673752 54.4217022,27.7107797 L54.4217022,27.7107797 L51.663642,28.3629186 C51.4155399,28.4213271 51.177619,28.2359203 51.1733321,27.9813879 L51.1733321,27.9813879 L51.162615,27.3185317 C49.5963026,28.0349737 48.3070287,28.3071894 47.2690721,28.3071894 C46.2948826,28.3071894 45.5371796,28.0767706 44.96274,27.777226 C43.6166652,27.0741806 42.7828704,25.7114942 42.7319639,24.1312494 C42.6440832,21.3839064 46.2380816,14.8721622 48.1280522,13.2619094 C49.3128338,12.2523533 50.0528534,11.9308386 51.3866036,11.8965437 Z M27.3726177,13.4504778 C29.9222292,13.7816379 31.8304189,16.1844244 32.5548986,17.203626 C32.7086898,17.4206484 32.6079486,17.7207288 32.3560954,17.8075377 L29.8938287,18.6552648 C29.7416451,18.7077789 29.5749933,18.6665178 29.4683576,18.545414 C29.1141556,18.1413772 28.1914084,17.3659909 27.3404662,16.90944 C26.8040725,16.6216844 26.0731625,16.34411 25.3090292,16.5204073 C24.488095,16.7101009 24.4800572,17.4667322 24.8433688,17.8134322 C25.117728,18.0749308 25.8882915,18.69599 28.0628025,19.6857194 C28.3425203,19.8137894 28.580977,19.9231044 28.7594177,20.0120568 L29.0846834,20.1728141 L29.2344076,20.2468227 L29.2344076,20.2468227 L29.5461529,20.4019268 C31.6196162,21.4410994 34.5317164,23.0884165 33.5917835,25.5614004 C32.9578637,27.2316692 30.4087881,27.8795213 29.6435831,28.0386711 C29.1527373,28.1404841 28.4357596,28.246048 27.5724926,28.246048 C25.5517728,28.246048 23.2550862,27.8538001 20.6818969,25.3122265 C20.5565062,25.1884433 20.5254265,24.9907118 20.6079486,24.8347772 L21.846316,22.5005805 C21.9695633,22.2685541 22.2728588,22.2256855 22.4705903,22.3987675 C25.1525587,24.7388586 29.24812,25.4392248 29.5331964,24.5293382 C29.6968185,24.0058876 28.8574971,23.6476087 27.9669836,23.3211907 L27.495983,23.1506251 C27.1857682,23.0379222 26.8900983,22.9262577 26.6508172,22.8097705 C24.1135304,21.5778333 21.5081897,20.3855497 21.2123962,18.119407 C21.1052246,17.2974011 21.1872109,15.8897026 22.6050906,14.7263553 C24.028329,13.5592569 25.731821,13.2377423 27.3726177,13.4504778 Z M97.8117174,14.2699116 C100.003912,16.4696079 99.8286863,23.0413682 99.7702778,27.7011878 C99.7681343,27.8898098 99.633634,28.0446727 99.4487631,28.081111 L95.9244262,28.0950433 C95.676324,28.1438064 95.4410824,27.9514334 95.4496562,27.6979727 C95.455676,27.5058391 95.4624915,27.3127693 95.4698757,27.119146 L95.4935074,26.5369989 L95.4935074,26.5369989 L95.5191894,25.9538293 C95.5235649,25.8566769 95.5279691,25.7595775 95.5323737,25.6625792 L95.5585777,25.0821841 C95.7216854,21.4188761 95.8033109,18.0396713 94.2466554,17.5713316 C92.8523113,17.1519086 91.2626315,18.4619275 90.2841767,19.4792026 L89.9562561,27.7267482 C89.9460748,27.980209 89.7333393,28.127034 89.4595159,28.11203 L86.071287,28.11203 C85.8890953,28.0659462 85.7642404,27.8982227 85.7712066,27.7101366 L86.2952755,13.5859962 C86.304921,13.3448602 86.5240868,13.1674913 86.7620077,13.2087523 L90.1620255,13.7992677 C90.3586854,13.8335626 90.499616,14.0082522 90.492114,14.2075913 L90.4809952,14.4753772 C91.7853953,13.7750686 93.2287026,13.1740997 94.3924087,13.0701259 C95.6559614,12.9575958 97.104921,13.5593641 97.8117174,14.2699116 Z M71.1373046,15.5850674 C71.3570063,15.5850674 71.5359829,15.7635081 71.5359829,15.9837456 L71.5359829,27.4425292 C71.5359829,27.7002769 71.2964544,27.8894347 71.0462088,27.8310262 L68.3278021,27.8422792 C68.1477539,27.7994106 68.0207556,27.6391891 68.0207556,27.4537823 L68.0207556,15.9837456 C68.0207556,15.7635081 68.1991962,15.5850674 68.4188979,15.5850674 L71.1373046,15.5850674 Z M39.9777083,9.54691435 C40.1979459,9.54691435 40.3763865,9.72535501 40.3763865,9.94559257 L40.376,13.5668802 L43.296115,13.5813343 C43.4879521,13.582406 43.6513888,13.7190497 43.6862195,13.9082076 L44.1845673,16.6287577 C44.2295794,16.8741806 44.0404215,17.1003126 43.7907118,17.0992447 L40.376,17.0818802 L40.3763865,27.2436188 C40.3763865,27.4949361 40.1459677,27.684094 39.8994731,27.6342592 L37.1816022,27.642297 C36.9951237,27.604787 36.8606234,27.4418862 36.8606234,27.2516567 L36.86,17.0648802 L33.7294454,17.0494061 C33.5429669,17.0483344 33.3816737,16.9186568 33.3420202,16.7364651 L32.7440029,14.0148433 C32.6888095,13.7656694 32.8795749,13.5298919 33.1346432,13.53096 L36.86,13.5488802 L36.8606234,9.94559257 C36.8606234,9.72535501 37.039064,9.54691435 37.2593016,9.54691435 L39.9777083,9.54691435 Z M62.4512637,9.54691435 C62.6715013,9.54691435 62.8499419,9.72535501 62.8499419,9.94559257 L62.849,13.5668802 L65.7691882,13.5813343 C65.9615611,13.582406 66.1249978,13.7190497 66.1598285,13.9082076 L66.6581763,16.6287577 C66.7031884,16.8741806 66.5140305,17.1003126 66.2643208,17.0992447 L62.849,17.0818802 L62.8499419,27.2436188 C62.8499419,27.4949361 62.6195231,27.684094 62.3730285,27.6342592 L59.6546218,27.642297 C59.4681433,27.604787 59.3341788,27.4418862 59.3341788,27.2516567 L59.334,17.0648802 L56.2030544,17.0494061 C56.01604,17.0483344 55.8552827,16.9186568 55.8150933,16.7364651 L55.217076,14.0148433 C55.1618826,13.7656694 55.3531839,13.5298919 55.6082522,13.53096 L59.334,13.5488802 L59.3341788,9.94559257 C59.3341788,9.72535501 59.5126195,9.54691435 59.7323212,9.54691435 L62.4512637,9.54691435 Z M76.3017415,20.5796374 C75.8489417,22.9433062 76.4673216,24.9618826 78.5518085,25.1531839 C80.8543896,25.3653836 81.403108,23.4282576 81.7021166,21.428972 C82.0616772,19.0229704 81.19198,16.6753773 79.5747611,16.4696079 C78.1263374,16.2852728 76.6816647,18.59482 76.3017415,20.5796374 Z M51.3978566,15.3153166 C51.3860677,14.2945075 50.1198357,15.3806913 49.5855854,15.9931767 C48.0787532,17.7207824 44.6390819,23.1056176 46.5987139,24.7807091 C47.9013843,25.8936858 51.0602661,24.159114 51.0602661,24.159114 C51.0602661,24.159114 51.1828016,22.0393399 51.2805915,19.7682936 L51.3132272,18.9791442 C51.3686847,17.5762227 51.4083356,16.2020303 51.3978566,15.3153166 Z M8.2697151,18.8290435 L8.20273287,24.5975529 C12.2790033,23.5151201 14.3484862,22.7718853 16.2727516,21.6696258 C13.8624632,20.4007145 11.5229079,19.4811825 8.2697151,18.8290435 L8.2697151,18.8290435 Z M70.6299009,10.2418684 L71.2525677,10.2761633 C71.4722694,10.2874163 71.6405287,10.4755024 71.6287398,10.6952041 L71.4406537,14.1761365 C71.4288649,14.3958382 71.2407788,14.5640975 71.0210771,14.5523087 L70.3989461,14.5190855 C70.1792444,14.5067607 70.0099134,14.3186746 70.0222381,14.0989729 L70.2103242,10.6185764 C70.2221131,10.3988747 70.4096633,10.2306153 70.6299009,10.2418684 Z M68.4259177,10.2550456 L69.0491203,10.2571939 C69.2693579,10.2577297 69.4477985,10.4367063 69.4472639,10.6569438 L69.4349379,14.1426989 C69.4338662,14.3624006 69.2548897,14.5403054 69.0346521,14.5397708 L68.4114495,14.5376261 C68.1917478,14.5365544 68.013843,14.3575779 68.0143776,14.1373404 L68.0261677,10.6521211 C68.0267036,10.4318835 68.206216,10.2539787 68.4259177,10.2550456 Z M8.29597214,8.76616951 L8.23595606,13.8611057 C10.82147,13.0851835 13.0404573,12.2369206 14.7530589,11.1485934 C13.2253282,10.2269179 11.3015986,9.35239796 8.29597214,8.76616951 L8.29597214,8.76616951 Z" id="形状结合" fill="#4C93FF"></path>
    </g>
</svg>